<svg class="logo-contra-big" width="2660" xmlns="http://www.w3.org/2000/svg" viewBox="0 0 1890.67 409.38" style="enable-background:new 0 0 1890.67 409.38"><switch><g><path fill="none" d="M1671.98 45.54c-16.05 31-37.64 95.22-54.26 161.1h90.25c-9.79-42.26-19.57-84.52-29.35-126.78-3.32-16.06-6.64-34.32-6.64-34.32zM1861.63 128v16.43c4.68-.29 7.93-3.39 7.93-7.85-.01-5.19-3.1-7.71-7.93-8.58zM436.27 56.6c-33.45 0-54.21 32.88-64.84 58.09-12.41 29.4-16.82 58.46-16.82 90 0 31.57 4.41 60.64 16.83 90.04 10.63 25.21 31.39 58.05 64.83 58.05s54.2-32.87 64.84-58.07c12.41-29.4 16.81-58.46 16.81-90.01 0-31.55-4.4-60.63-16.82-90.04-10.65-25.2-31.39-58.06-64.83-58.06zm1413.54 110.31c-3.46 0-4.68 2.31-4.68 5.76 0 5.62 3.45 8.72 7.06 8.72h5.55c-1.01-1.73-1.59-4.4-2.16-6.84-1.16-5.12-2.31-7.64-5.77-7.64zm-2.02-134.24c0 5.05 2.81 8.07 6.99 8.07 4.9 0 7.42-3.6 7.42-8.36V20.64h-14.41v12.03zm22.12-.72c0 4.54 2.16 7.64 6.2 7.64 3.82 0 6.05-2.81 6.05-7.42V20.64h-12.25v11.31z"/><path fill="#C92D1F" d="M1816.87 270.3c-23.62-88.03-47.24-176.04-70.86-264.07h-118.86c-67.1 110.88-91.5 235.67-105.87 308.68-10.36-41.8-29.02-86.96-74.04-104.4 69.75-13.84 77.49-75.83 77.49-100.74 0-79.64-55.72-98.3-126.29-102.42H812.83c-42.07 87.64-84.16 175.3-126.24 262.96-9.96 21.03-14.4 39.3-15.5 42.62V201.11c0-161.1 2.22-163.32 13.84-185.45l4.98-9.42h-107.4l4.98 9.42c7.97 14.67 11.8 21.4 13.2 96.01-37.2-80.72-122.94-130.99-212.08-104.6-86.83 25.7-137.25 112.26-136.96 198.39.29 86.13 51.32 172.35 138.43 197.29 89.35 25.58 174.66-25.51 211.24-106.42V401.5h115.7c42.26-88.2 84.52-176.4 126.78-264.62 9.41-19.93 14.95-40.96 15.49-42.62v112.38c0 161.09-2.21 163.3-13.83 185.45-1.65 3.14-3.3 6.27-4.94 9.41h107.36c-1.66-3.14-3.33-6.27-4.99-9.41-9.96-19.37-13.83-24.91-13.83-190.99 0-55.16.26-91.7 1.07-116.78 2.95-2.4 7.08-5.38 12.78-8.89 13.29-7.75 34.32-17.24 60.34-17.24h29.89V201.1c0 166.08-2.76 169.95-13.84 190.99-1.66 3.14-3.32 6.27-4.98 9.41h134.53c-1.66-3.14-3.32-6.27-4.98-9.41-11.62-22.15-13.84-24.36-13.84-185.45V58.2h29.89c26.01 0 47.06 9.49 60.34 17.24 8.63 5.24 13.48 9.27 16.19 11.92.73 24.97.98 60.76.98 113.74 0 166.08-3.32 171.61-13.84 190.99-1.66 3.14-3.32 6.27-4.98 9.41h130.09c-1.66-3.14-3.32-6.27-4.98-9.41-11.07-19.93-13.84-23.25-13.84-156.12V57.16s7.2-1.1 21.6-1.1c44.28 0 74.73 11.07 74.73 67.53 0 75.29-51.48 83.59-78.61 87.47 46.5 24.91 84.69 101.3 84.69 173.83 0 12.06-5.42 16.52-5.53 16.61h181.57c-7.2-4.98-14.95-13.83-14.95-40.41 0-26.01 4.98-60.89 12.74-98.54h114.59c1.1 3.88 2.22 7.76 3.32 11.62 10.52 40.97 16.06 73.08 16.06 92.45 0 20.49-10.52 29.89-17.72 34.87h143.77c-20.5-19.93-28.8-53.69-49.27-131.19zM501.11 294.7c-10.65 25.21-31.4 58.07-64.84 58.07s-54.2-32.84-64.83-58.05c-12.42-29.4-16.83-58.47-16.83-90.04 0-31.54 4.41-60.6 16.82-90 10.63-25.21 31.39-58.09 64.84-58.09 33.44 0 54.18 32.85 64.83 58.05 12.42 29.41 16.82 58.48 16.82 90.04 0 31.56-4.4 60.62-16.81 90.02zm1116.61-88.07c16.62-65.88 38.21-130.1 54.26-161.1 0 0 3.32 18.27 6.64 34.32 9.78 42.26 19.56 84.52 29.35 126.78h-90.25z"/><path fill="#C92D1F" d="M301.72 371.83c-9.26-8.76-17.67-18.39-25.21-28.67a224.67 224.67 0 01-19.59-32.18s-4.35 17.94-20.44 30.15c-5.43 4.71-13.84 7.22-31.25 7.22-71.97 0-102.89-51.48-102.89-141.17 0-84.14 31.48-147.8 105.11-147.8 14.08 0 22.15 1.59 27.46 4.65.19.1 12.7 6.51 22.9 32.6 5.42-10.61 11.67-20.8 18.71-30.41 7.52-10.29 15.95-19.92 25.2-28.67 9.06-8.59 18.9-16.32 29.38-23.1 4.52-2.92 9.17-5.68 13.92-8.23H164.89c-2.65 0-5.27.22-7.88.64C116.36 13.56 77.4 29.1 50.6 56.9 15.49 93.32 1.24 150.77.01 202.72c-.01.77-.01 1.52 0 2.28 1.23 51.96 15.48 109.4 50.59 145.83 26.81 27.79 65.75 43.33 106.39 50.02 2.61.43 5.23.64 7.88.64h177.12c-3.71-2.07-7.34-4.26-10.89-6.57a203.99 203.99 0 01-29.38-23.09zm1536.42-162.48c0 5.19 1.95 8.07 5.34 10.59v.21h-4.33v9.44h36.97v-9.8h-21.33c-4.9 0-8.36-2.81-8.36-7.42 0-4.18 2.37-6.13 6.7-6.13h22.98v-9.73h-24.65c-8.06.02-13.32 4.63-13.32 12.84zm26.73-50.22v8.72c3.53.29 5.19 2.52 5.19 7.13 0 4.11-1.73 6.2-4.39 6.2-2.81 0-3.32-2.81-4.18-8.94-1.15-8.22-3.75-14.84-11.89-14.84-7.35 0-11.31 5.33-11.31 12.9 0 6.34 2.16 9.01 4.97 10.88v.14c-1.66.21-3.39.58-4.11 1.15v9.44h.36c.65-.87 2.31-1.3 5.11-1.3h18.81c8.65 0 13.62-4.47 13.62-15.56 0-10.8-5.69-15.63-12.18-15.92zm-12.68 22.27c-3.6 0-7.06-3.1-7.06-8.72 0-3.46 1.22-5.76 4.68-5.76s4.61 2.52 5.76 7.64c.58 2.45 1.15 5.11 2.16 6.84h-5.54zm5.48-63.2c-11.03 0-19.6 6.92-19.6 19.17 0 9.51 5.55 15.35 12.11 16.71v-9.66c-2.81-1.08-4.54-3.31-4.54-7.13 0-5.55 3.53-8.72 9.22-9.44v26.8c13.19 0 22.27-6.34 22.27-18.23-.01-10.79-8.51-18.22-19.46-18.22zm3.96 26.23V128c4.83.87 7.93 3.39 7.93 8.58-.01 4.47-3.25 7.56-7.93 7.85zm6.05-27.59h8.57c.22-.58.29-1.23.29-2.31 0-4.32-2.16-6.85-6.34-9.08v-.21h5.91V95.8h-36.96v9.8h18.01c7.78 0 11.17 4.61 10.52 11.03v.21zm-29.54-47.63c0 5.19 1.95 8.07 5.34 10.59v.21h-4.33v9.44h36.97v-9.8h-21.33c-4.9 0-8.36-2.81-8.36-7.42 0-4.18 2.37-6.13 6.7-6.13h22.98v-9.73h-24.65c-8.06.01-13.32 4.62-13.32 12.84zm1.01-59.02v23.64c0 5.48 1.51 10.01 4.11 12.97 2.59 3.03 5.9 4.54 10.73 4.54 6.34 0 11.1-3.89 12.76-9.58h.22c1.66 4.83 5.04 8.07 10.3 8.07 4.04 0 7.13-1.3 9.66-4.11 2.38-2.66 3.75-6.92 3.75-12.47V10.19h-51.53zm23.05 22.19c0 4.76-2.52 8.36-7.42 8.36-4.18 0-6.99-3.03-6.99-8.07V20.64h14.41v11.74zm19.96-.21c0 4.61-2.23 7.42-6.05 7.42-4.03 0-6.2-3.1-6.2-7.64V20.64h12.25v11.53z"/></g></switch></svg>